<?xml version="1.0" encoding="iso-8859-1"?>
<!-- Generator: Adobe Illustrator 17.1.0, SVG Export Plug-In . SVG Version: 6.00 Build 0)  -->
<!DOCTYPE svg PUBLIC "-//W3C//DTD SVG 1.1//EN" "http://www.w3.org/Graphics/SVG/1.1/DTD/svg11.dtd">
<svg version="1.1" id="Capa_1" xmlns="http://www.w3.org/2000/svg" xmlns:xlink="http://www.w3.org/1999/xlink" x="0px" y="0px"
	 viewBox="0 0 512.001 512.001" style="enable-background:new 0 0 512.001 512.001;" xml:space="preserve">
<g>
	<path d="M336,104c22.056,0,40-17.944,40-40c0-19.317-13.764-35.479-32-39.195v-8.787C344,7.186,336.815,0,327.983,0H184.018
		C175.186,0,168,7.186,168,16.018v8.787C149.765,28.521,136,44.683,136,64c0,22.056,17.944,40,40,40c5.687,0,11.097-1.201,16-3.35
		V112c-4.418,0-8,3.582-8,8s3.582,8,8,8v296c-4.418,0-8,3.582-8,8c0,4.38,3.522,7.934,7.889,7.994
		c-0.842,30.413-6.674,48.384-18.139,56.006H160c-4.418,0-8,3.582-8,8s3.582,8,8,8h15.992c0.005,0,0.01,0.001,0.015,0.001
		c0.005,0,0.01-0.001,0.016-0.001h159.954c0.005,0,0.01,0.001,0.016,0.001c0.005,0,0.01-0.001,0.015-0.001H352c4.418,0,8-3.582,8-8
		s-3.582-8-8-8h-13.75c-11.465-7.622-17.297-25.593-18.139-56.006c4.367-0.06,7.889-3.614,7.889-7.994c0-4.418-3.582-8-8-8V128
		c4.418,0,8-3.582,8-8s-3.582-8-8-8v-11.35C324.904,102.799,330.313,104,336,104z M215.196,56c-1.204-5.908-3.716-11.346-7.217-16
		H224c0,4.418,3.582,8,8,8s8-3.582,8-8h8c0,4.418,3.582,8,8,8s8-3.582,8-8h8c0,4.418,3.582,8,8,8s8-3.582,8-8h16.022
		c-3.501,4.654-6.013,10.092-7.217,16H215.196z M360,64c0,13.233-10.767,24-24,24s-24-10.767-24-24s10.767-24,24-24
		S360,50.767,360,64z M328,16.018V24H184.009l0.009-8L328,16.018z M152,64c0-13.233,10.767-24,24-24s24,10.767,24,24
		s-10.767,24-24,24S152,77.233,152,64z M195.462,496c2.792-4.438,5.099-9.587,6.932-15.512c1.511-4.886,2.706-10.37,3.602-16.488
		h50.009c4.418,0,8-3.582,8-8s-3.582-8-8-8h-48.438c0.148-2.579,0.26-5.241,0.331-8h96.194c0.062,2.645,0.164,5.318,0.312,8H288
		c-4.418,0-8,3.582-8,8s3.582,8,8,8h17.969c1.74,11.751,4.935,22.951,10.641,32H195.462z M288,128h16v296h-96V128h48
		c4.418,0,8-3.582,8-8s-3.582-8-8-8h-48V88c0-0.009-0.001-0.018-0.001-0.026c3.491-4.647,5.995-10.076,7.196-15.974h81.61
		c1.202,5.897,3.706,11.326,7.196,15.974c0,0.009-0.001,0.018-0.001,0.026v24h-16c-4.418,0-8,3.582-8,8S283.582,128,288,128z"/>
	<path d="M176,56c-2.11,0-4.17,0.85-5.66,2.34c-1.49,1.49-2.34,3.56-2.34,5.66c0,2.1,0.85,4.16,2.34,5.66
		c1.49,1.489,3.55,2.34,5.66,2.34c2.1,0,4.17-0.851,5.66-2.34C183.15,68.16,184,66.1,184,64c0-2.101-0.85-4.17-2.34-5.66
		C180.17,56.85,178.11,56,176,56z"/>
	<path d="M330.34,58.34c-1.49,1.49-2.34,3.55-2.34,5.66c0,2.109,0.85,4.17,2.34,5.66c1.49,1.489,3.56,2.34,5.66,2.34
		s4.17-0.851,5.66-2.34C343.15,68.16,344,66.1,344,64c0-2.101-0.85-4.17-2.34-5.66C340.17,56.85,338.11,56,336,56
		C333.9,56,331.831,56.85,330.34,58.34z"/>
	<path d="M256,80c-4.418,0-8,3.582-8,8v8c0,4.418,3.582,8,8,8s8-3.582,8-8v-8C264,83.582,260.419,80,256,80z"/>
	<path d="M288,96v-8c0-4.418-3.582-8-8-8s-8,3.582-8,8v8c0,4.418,3.582,8,8,8S288,100.418,288,96z"/>
	<path d="M232,80c-4.418,0-8,3.582-8,8v8c0,4.418,3.582,8,8,8s8-3.582,8-8v-8C240,83.582,236.419,80,232,80z"/>
	<path d="M224,144c-4.418,0-8,3.582-8,8v248c0,4.418,3.582,8,8,8s8-3.582,8-8V152C232,147.582,228.419,144,224,144z"/>
	<path d="M256,144c-4.418,0-8,3.582-8,8v248c0,4.418,3.582,8,8,8s8-3.582,8-8V152C264,147.582,260.419,144,256,144z"/>
	<path d="M288,408c4.418,0,8-3.582,8-8V152c0-4.418-3.582-8-8-8s-8,3.582-8,8v248C280,404.418,283.582,408,288,408z"/>
</g>
<g>
</g>
<g>
</g>
<g>
</g>
<g>
</g>
<g>
</g>
<g>
</g>
<g>
</g>
<g>
</g>
<g>
</g>
<g>
</g>
<g>
</g>
<g>
</g>
<g>
</g>
<g>
</g>
<g>
</g>
</svg>
